<svg xmlns="http://www.w3.org/2000/svg" viewBox="0 0 560 380" fill="none">
  <!-- Terminal window frame — clean zinc, no glow -->
  <rect x="0.5" y="0.5" width="559" height="379" rx="10" fill="#09090b" stroke="#27272a" stroke-width="1"/>

  <!-- Title bar -->
  <path d="M0.5 10a10 10 0 0110-10h539a10 10 0 0110 10v26H0.5z" fill="#131316"/>
  <line x1="0.5" y1="36" x2="559.5" y2="36" stroke="#27272a" stroke-width="1"/>

  <!-- Traffic lights -->
  <circle cx="20" cy="18" r="5" fill="#3f3f46"/>
  <circle cx="38" cy="18" r="5" fill="#3f3f46"/>
  <circle cx="56" cy="18" r="5" fill="#3f3f46"/>

  <text x="280" y="24" text-anchor="middle" fill="#52525b" font-family="ui-monospace, monospace" font-size="11" letter-spacing="0.04em">commander — terminal</text>

  <text font-family="ui-monospace, monospace" font-size="12">
    <tspan x="20" y="62" fill="#3f3f46"># Commander v0.2 — multi-agent runtime</tspan>

    <tspan x="20" y="92" fill="#a1a1aa">$</tspan>
    <tspan x="34" y="92" fill="#e4e4e7"> run "audit this repo" --stream</tspan>

    <tspan x="20" y="120" fill="#3f3f46">┃</tspan>
    <tspan x="32" y="120" fill="#71717a">→</tspan>
    <tspan x="48" y="120" fill="#a1a1aa">Classification:</tspan>
    <tspan x="168" y="120" fill="#fafafa">ANALYSIS</tspan>
    <tspan x="250" y="120" fill="#52525b">· 7/10</tspan>

    <tspan x="20" y="142" fill="#3f3f46">┃</tspan>
    <tspan x="32" y="142" fill="#71717a">→</tspan>
    <tspan x="48" y="142" fill="#a1a1aa">Topology:</tspan>
    <tspan x="148" y="142" fill="#fafafa">DISPATCH</tspan>
    <tspan x="228" y="142" fill="#52525b">(3 agents)</tspan>

    <tspan x="20" y="172" fill="#3f3f46">┃</tspan>
    <tspan x="32" y="172" fill="#4ade80">✓</tspan>
    <tspan x="48" y="172" fill="#e4e4e7">Agent α</tspan>
    <tspan x="120" y="172" fill="#71717a">security-scanner · npm audit</tspan>

    <tspan x="20" y="194" fill="#3f3f46">┃</tspan>
    <tspan x="32" y="194" fill="#4ade80">✓</tspan>
    <tspan x="48" y="194" fill="#e4e4e7">Agent β</tspan>
    <tspan x="120" y="194" fill="#71717a">code-reviewer · secrets scan</tspan>

    <tspan x="20" y="216" fill="#3f3f46">┃</tspan>
    <tspan x="32" y="216" fill="#fbbf24">⚠</tspan>
    <tspan x="48" y="216" fill="#e4e4e7">Gate SAFETY</tspan>
    <tspan x="148" y="216" fill="#71717a">potential secret pattern</tspan>

    <tspan x="20" y="246" fill="#3f3f46">┃</tspan>
    <tspan x="32" y="246" fill="#4ade80">✓</tspan>
    <tspan x="48" y="246" fill="#fafafa">Gates ACCURACY · COMPLETENESS · SAFETY</tspan>

    <tspan x="20" y="276" fill="#3f3f46">┃</tspan>
    <tspan x="32" y="276" fill="#a1a1aa">→</tspan>
    <tspan x="48" y="276" fill="#fafafa">Synthesizer · 4 findings, 2 critical</tspan>

    <tspan x="20" y="310" fill="#52525b">elapsed 12.4s · tokens 8,412 · providers 25 · tools 18</tspan>
    <tspan x="20" y="340" fill="#3f3f46"># no graph builders · no YAML · every decision visible</tspan>
  </text>
</svg>
